<?xml version="1.0" encoding="utf-8"?>
<!-- Generator: Adobe Illustrator 24.1.2, SVG Export Plug-In . SVG Version: 6.00 Build 0)  -->
<svg version="1.1" id="Layer_1" xmlns="http://www.w3.org/2000/svg" xmlns:xlink="http://www.w3.org/1999/xlink" x="0px" y="0px"
	 viewBox="0 0 492 492" style="enable-background:new 0 0 492 492;" xml:space="preserve">
<style type="text/css">
	.st0{fill:#1A73E8;}
</style>
<g>
	<g>
		<path class="st0" d="M27.7,284.6l-0.8-0.2h329.2L252.6,388.1c-5.1,5.1-7.8,11.9-7.8,19.1c0,7.2,2.8,14,7.8,19.1l16.1,16.1
			c5.1,5.1,11.8,7.9,19,7.9c7.2,0,14-2.8,19-7.8l177.4-177.4c5.1-5.1,7.9-11.9,7.8-19.1c0-7.2-2.8-14-7.8-19.1L306.7,49.5
			c-5.1-5.1-11.8-7.8-19-7.8c-7.2,0-13.9,2.8-19,7.8l-16.1,16.1c-5.1,5.1-7.8,11.8-7.8,19c0,7.2,2.8,13.6,7.8,18.7l104.7,104.3h-330
			C12.5,207.6,0,220.4,0,235.2V258C0,272.8,12.8,284.6,27.7,284.6z"/>
	</g>
</g>
</svg>
