<svg xmlns="http://www.w3.org/2000/svg" viewBox="0 0 21.43 21.43">
  <defs/>
  <g data-name="Groupe 38">
    <path fill="#737373" d="M20.86 3.48L17.94.55a2 2 0 00-2.76 0L2.08 13.78a.49.49 0 00-.11.2L.02 20.82a.49.49 0 00.6.6l6.82-1.95a.49.49 0 00.2-.12l13.22-13.1a1.95 1.95 0 000-2.76zm-7.8.62l1.8 1.8-9.37 9.35-.67-1.34a.49.49 0 00-.44-.27H3.6zM1.2 20.24L1.83 18l1.59 1.59zm5.62-1.61l-2.33.66-2.35-2.35.66-2.33h1.28l.84 1.68a.49.49 0 00.22.22l1.68.84v1.28zm.98-.8v-.78a.49.49 0 00-.27-.44l-1.35-.67 9.36-9.36 1.8 1.8zM20.17 5.56l-2.14 2.13-4.29-4.28 2.13-2.15a1 1 0 011.38 0l2.92 2.92a.97.97 0 010 1.38z" data-name="Tracé 36"/>
  </g>
</svg>