<svg xmlns="http://www.w3.org/2000/svg" viewBox="0 0 35 35">
  <defs/>
  <path fill="none" d="M0 0h35v35H0z" data-name="Rectangle 12"/>
  <g data-name="Groupe 16">
    <g data-name="Groupe 15">
      <path fill="#fff" d="M29.74 24.65a.48.48 0 00-.52.1l-5.2 5.2a.48.48 0 00.34.82h5.2a.48.48 0 00.47-.48v-5.2a.48.48 0 00-.3-.44zm-4.24 5.17l3.58-3.58v3.58z" data-name="Tracé 17"/>
    </g>
  </g>
  <g data-name="Groupe 18">
    <g data-name="Groupe 17">
      <path fill="#fff" d="M33.18 17.03a.48.48 0 00-.52.1l-1.43 1.42V8.87a.48.48 0 00-.47-.48H27.1l1.33-1.33L29.7 5.8a1.45 1.45 0 000-2.05l-1.48-1.48a1.45 1.45 0 00-2.05 0L24.9 3.54l-1.54 1.54-3.32 3.31H5.27V3.7a.48.48 0 00-.47-.48 3.75 3.75 0 00-3.74 3.74v20.2a.48.48 0 000 .1 3.6 3.6 0 003.6 3.34H19.2l-2.74 2.74a.48.48 0 00.33.81H33a.48.48 0 00.48-.48v-16.2a.48.48 0 00-.3-.43zm-6.33-14.1a.5.5 0 01.7 0l1.49 1.48a.5.5 0 010 .7l-.95.95-2.18-2.19zm-1.61 1.62l2.18 2.18-.87.87-2.19-2.18zm7.28 18.26h-.88a.48.48 0 100 .95h.88v1.44h-.88a.48.48 0 100 .95h.88v1.43h-.88a.48.48 0 100 .95h.88v1.44h-.88a.48.48 0 100 .95h.88v2.27H17.95l4.8-4.8a.48.48 0 00-.67-.68l-1.93 1.93H4.65a2.64 2.64 0 01-2.64-2.57l.02-.27.02-.12v-.02l.02-.1.01-.04.02-.1.02-.04.02-.07.02-.07.02-.05.04-.1v-.02l.06-.12a2.8 2.8 0 011.95-1.52l.12-.02h.02l.11-.01h.03l.1-.01H4.8a.48.48 0 00.48-.48v-3.47a.48.48 0 00-.95 0v3a3.72 3.72 0 00-2.14 1.04l-.18.18V6.96A2.8 2.8 0 014.32 4.2v14.34a.48.48 0 00.95 0v-9.2h13.82l-2.63 2.63a.48.48 0 00.67.67l3.45-3.44 3.1-3.11 2.2 2.18-.26.26-9.6 9.59-2.18-2.18 1.9-1.9a.48.48 0 00-.68-.66l-2.23 2.22a.48.48 0 00-.03.04l-.01.01-.02.03-.01.02-.02.03v.01l-.02.03v.01l-.93 2.63-.63 1.8a.48.48 0 00-.02.06H9.56a.48.48 0 100 .95h13.17a.48.48 0 100-.95h-9.45l2.9-1.02.04-.01.01-.01.04-.02.04-.03h.01a.48.48 0 00.04-.04l9.79-9.79h4.13v10.16l-6.8 6.8a.48.48 0 000 .68.48.48 0 00.03.03.47.47 0 00.64-.03l8.37-8.38zM15.16 18.6l-1.37.48-.9-.9.48-1.37z" data-name="Tracé 18"/>
    </g>
  </g>
</svg>