<svg xmlns="http://www.w3.org/2000/svg" viewBox="0 0 100 97.76">
  <defs/>
  <g data-name="Groupe 2">
    <g data-name="Groupe 1">
      <path fill="#f7931e" d="M76.11 4.93H61.87V7.8h14.24a1.98 1.98 0 011.98 1.98 1.95 1.95 0 01-.22.9l2.57 1.32a4.87 4.87 0 00-4.33-7.08z" data-name="Tracé 13"/>
    </g>
  </g>
  <g data-name="Groupe 4">
    <g data-name="Groupe 3">
      <path fill="#f7931e" d="M54.13 4.93h3.58V7.8h-3.58z" data-name="Rectangle 5"/>
    </g>
  </g>
  <g data-name="Groupe 6">
    <g data-name="Groupe 5">
      <path fill="#f7931e" d="M17.9 30.74h50.98v2.88H17.9z" data-name="Rectangle 6"/>
    </g>
  </g>
  <g data-name="Groupe 8">
    <g data-name="Groupe 7">
      <path fill="#f7931e" d="M17.9 83.33h50.98v2.88H17.9z" data-name="Rectangle 7"/>
    </g>
  </g>
  <g data-name="Groupe 10">
    <g data-name="Groupe 9">
      <path fill="#f7931e" d="M85.82 31.68l-2.04 2.04 1.8 1.8-5.93 5.92 2.04 2.04 7.97-7.97z" data-name="Tracé 14"/>
    </g>
  </g>
  <g data-name="Groupe 12">
    <g data-name="Groupe 11">
      <path fill="#f7931e" d="M75.93 45.16l1.92-1.92 2.04 2.04-1.93 1.92z" data-name="Rectangle 8"/>
    </g>
  </g>
  <g data-name="Groupe 14">
    <g data-name="Groupe 13">
      <path fill="#f7931e" d="M97.67 23.22l-1.07-1.06a7.96 7.96 0 00-11.25 0l-1.04 1.04-2.04 2.04-5.29 5.29V19.55A9.8 9.8 0 0076.11 0H9.79A9.8 9.8 0 000 9.8v77.97h8.35v9.99H77v-42.6l17.6-17.6L96.13 36l.5-.5 1.04-1.04a7.95 7.95 0 000-11.24zM16.73 2.9H76.1a6.9 6.9 0 010 13.81H16.73a9.78 9.78 0 000-13.81zM8.35 16.7V84.9H2.9V9.79a6.9 6.9 0 116.9 6.91zM74.1 94.88H11.24v-75.3H74.1v13.83l-6.25 6.26H17.9v2.88h47.05l-6.03 6.04H17.9v2.88h38.13L50 57.51H17.9v2.89h29.22l-.5.5-1.64 5.53H17.9v2.89h26.2l-1.78 6.04H17.9v2.88h50.97v-2.88H51.69l7.24-2.15 3.9-3.89h6.05v-2.88H65.7l8.4-8.4v36.83zM48.59 64.4l6.84 6.84-9.73 2.88zm9.58 5.5l-8.24-8.24 34.38-34.38 8.24 8.23zm37.46-37.47l-1.04 1.04-8.24-8.23 1.05-1.04a5.07 5.07 0 017.17 0l1.06 1.06a5.07 5.07 0 010 7.17z" data-name="Tracé 15"/>
    </g>
  </g>
</svg>