<svg xmlns="http://www.w3.org/2000/svg" viewBox="0 0 100 100">
  <defs/>
  <g data-name="Groupe 20">
    <g data-name="Groupe 19">
      <path fill="#f7931e" d="M33.33 8.33h33.33v3.33H33.33z" data-name="Rectangle 9"/>
    </g>
  </g>
  <g data-name="Groupe 22">
    <g data-name="Groupe 21">
      <path fill="#f7931e" d="M82.5 62.5a5.84 5.84 0 00-5.83-5.83h-3.34V33.33H70v23.34h-4.17a5.82 5.82 0 00-4.07 10 5.76 5.76 0 00-.87 7.22 5.83 5.83 0 00-3.39 5.28 5.76 5.76 0 00.59 2.5H45a15 15 0 00-6.45-12.32A10.02 10.02 0 0045 60a1.67 1.67 0 00-1.67-1.67H30V41.67h-3.33v16.66a5 5 0 00-5 5V100H25V63.33a1.67 1.67 0 011.67-1.66h14.78a6.68 6.68 0 01-6.45 5h-5A1.67 1.67 0 1030 70a11.68 11.68 0 0111.67 11.67v1.66A1.67 1.67 0 0043.33 85h9.76a5.76 5.76 0 00-.59 2.5 5.84 5.84 0 005.83 5.83V100h3.34v-6.67h7.5A5.84 5.84 0 0075 87.5a5.76 5.76 0 00-.6-2.52 5.79 5.79 0 004.71-8.87 5.8 5.8 0 001.63-9.44 5.81 5.81 0 001.76-4.17zM69.17 90H58.33a2.5 2.5 0 010-5h10.84a2.5 2.5 0 010 5zm5-8.33H63.33a2.5 2.5 0 010-5h10.84a2.5 2.5 0 010 5zm2.5-8.34H65.83a2.5 2.5 0 010-5h10.84a2.5 2.5 0 010 5zm0-8.33H65.83a2.5 2.5 0 010-5h10.84a2.5 2.5 0 010 5z" data-name="Tracé 19"/>
    </g>
  </g>
  <g data-name="Groupe 24">
    <g data-name="Groupe 23">
      <path fill="#f7931e" d="M25 21.21a1.67 1.67 0 00-.66-1.21l-1.73-1.31a4.55 4.55 0 00-9.02.83 9.67 9.67 0 01-3.74-1.5l-.58-.4A1.67 1.67 0 006.67 19v1.37A9.63 9.63 0 008.4 25.9l-1.25 1.26A1.67 1.67 0 008.33 30h8.08a6.31 6.31 0 006.24-5.6l1.87-1.9a1.67 1.67 0 00.48-1.29zm-5.16 1.29a1.66 1.66 0 00-.48 1.17 2.98 2.98 0 01-2.95 3h-4.24a1.67 1.67 0 00-.35-1.84A6.37 6.37 0 0110.21 22 12.96 12.96 0 0015.26 23a1.67 1.67 0 001.67-1.67v-1.75a1.22 1.22 0 112.43 0 1.67 1.67 0 00.66 1.33l.8.6z" data-name="Tracé 20"/>
    </g>
  </g>
  <g data-name="Groupe 26">
    <g data-name="Groupe 25">
      <path fill="#f7931e" d="M55 28.33V25h-5a1.67 1.67 0 00-1.67 1.67v5H45V35h3.33v6.67h3.34V35H55v-3.33h-3.33v-3.34z" data-name="Tracé 21"/>
    </g>
  </g>
  <g data-name="Groupe 28">
    <g data-name="Groupe 27">
      <path fill="#f7931e" d="M60 18.33H40a5 5 0 00-5 5v20a5 5 0 005 5h20a5 5 0 005-5v-20a5 5 0 00-5-5zm1.67 25A1.67 1.67 0 0160 45H40a1.67 1.67 0 01-1.67-1.67v-20A1.67 1.67 0 0140 21.67h20a1.67 1.67 0 011.67 1.66z" data-name="Tracé 22"/>
    </g>
  </g>
  <g data-name="Groupe 30">
    <g data-name="Groupe 29">
      <path fill="#f7931e" d="M25 8.33H5a5 5 0 00-5 5v20a5 5 0 005 5h20a5 5 0 005-5v-20a5 5 0 00-5-5zm1.67 25A1.67 1.67 0 0125 35H5a1.67 1.67 0 01-1.67-1.67v-20A1.67 1.67 0 015 11.67h20a1.67 1.67 0 011.67 1.66z" data-name="Tracé 23"/>
    </g>
  </g>
  <g data-name="Groupe 32">
    <g data-name="Groupe 31">
      <path fill="#f7931e" d="M95 0H75a5 5 0 00-5 5v20a5 5 0 005 5h20a5 5 0 005-5V5a5 5 0 00-5-5zm1.67 25A1.67 1.67 0 0195 26.67H75A1.67 1.67 0 0173.33 25v-8.33h3.5a8.33 8.33 0 0016.33 0h3.5zM80 15a5 5 0 115 5 5 5 0 01-5-5zm16.67-1.67h-3.5a8.33 8.33 0 00-16.33 0h-3.5V5A1.67 1.67 0 0175 3.33h20A1.67 1.67 0 0196.67 5z" data-name="Tracé 24"/>
    </g>
  </g>
  <g data-name="Groupe 34">
    <g data-name="Groupe 33">
      <path fill="#f7931e" d="M48.33 68.33h3.33v3.33h-3.33z" data-name="Rectangle 10"/>
    </g>
  </g>
</svg>