<svg xmlns="http://www.w3.org/2000/svg" viewBox="0 0 100 99.68">
  <defs/>
  <g data-name="Groupe 16">
    <g data-name="Groupe 15">
      <path fill="#f7931e" d="M88.48 70.41a1.47 1.47 0 00-1.6.32L70.84 86.77a1.47 1.47 0 001.04 2.5h16.04a1.47 1.47 0 001.47-1.46V71.77a1.47 1.47 0 00-.9-1.36zM75.43 86.34l11.02-11.03v11.03z" data-name="Tracé 17"/>
    </g>
  </g>
  <g data-name="Groupe 18">
    <g data-name="Groupe 17">
      <path fill="#f7931e" d="M99.1 46.88a1.47 1.47 0 00-1.6.32l-4.4 4.4V21.7a1.47 1.47 0 00-1.47-1.46H80.35l4.1-4.1 3.94-3.94a4.48 4.48 0 000-6.33l-4.56-4.56a4.48 4.48 0 00-6.33 0l-3.94 3.95-4.77 4.77-10.22 10.21H13.01V5.72a1.47 1.47 0 00-1.47-1.47A11.56 11.56 0 000 15.8v62.34a1.47 1.47 0 00.04.31 11.12 11.12 0 0011.08 10.28h44.85l-8.45 8.44a1.47 1.47 0 001.04 2.51h49.97a1.47 1.47 0 001.47-1.47V48.24a1.47 1.47 0 00-.9-1.36zM79.57 3.38a1.54 1.54 0 012.18 0l4.56 4.57a1.54 1.54 0 010 2.18l-2.9 2.9-6.75-6.73zm-4.99 5l6.74 6.73-2.69 2.7-6.74-6.75zm22.47 56.35h-2.7a1.47 1.47 0 100 2.94h2.7v4.42h-2.7a1.47 1.47 0 100 2.94h2.7v4.42h-2.7a1.47 1.47 0 100 2.94h2.7v4.42h-2.7a1.47 1.47 0 100 2.93h2.7v7H52.1l14.83-14.82a1.47 1.47 0 00-2.08-2.08l-5.94 5.95H11.1a8.14 8.14 0 01-8.17-7.92q.02-.42.07-.83.02-.2.06-.38v-.05l.07-.34.03-.1.07-.28.04-.16.07-.22.07-.22.06-.15.11-.29.03-.08.16-.35v-.01a8.64 8.64 0 016.01-4.7h.03l.36-.07h.07c.1-.03.22-.04.33-.05l.1-.01.33-.03h.1q.21-.02.43-.02a1.47 1.47 0 001.47-1.47V57.42a1.47 1.47 0 10-2.94 0v9.27a11.46 11.46 0 00-6.59 3.19c-.19.19-.37.38-.54.58V15.8a8.62 8.62 0 017.14-8.49v44.24a1.47 1.47 0 102.93 0V23.18h42.63l-8.12 8.11a1.47 1.47 0 002.08 2.08l10.62-10.62 9.6-9.6 6.74 6.73-.79.8-29.6 29.6-6.74-6.75 5.84-5.83a1.47 1.47 0 00-2.07-2.08l-6.88 6.87a1.48 1.48 0 00-.1.11c0 .02-.02.03-.03.05l-.06.08-.03.05-.04.08-.03.06-.04.09v.03l-2.87 8.1-1.95 5.52a1.48 1.48 0 00-.06.22h-4.88a1.47 1.47 0 100 2.94h40.65a1.47 1.47 0 100-2.94H37.7l8.95-3.16h.03a.91.91 0 00.1-.05l.04-.02a.87.87 0 00.1-.06l.03-.02a.83.83 0 00.1-.07l.02-.02a1.48 1.48 0 00.12-.1l30.22-30.2h12.74v31.35l-21 21a1.47 1.47 0 000 2.08 1.5 1.5 0 00.12.1 1.47 1.47 0 001.96-.1l25.83-25.83zm-53.57-13l-4.2 1.49-2.8-2.8 1.49-4.2z" data-name="Tracé 18"/>
    </g>
  </g>
</svg>