<svg xmlns="http://www.w3.org/2000/svg" viewBox="0 0 33.55 33.55">
  <defs/>
  <path fill="#fff" d="M33.53 32.85l-1.59-6.37a.56.56 0 00-.14-.26l-9.52-9.51 1.36-1.37a1.71 1.71 0 011.39-.52 7.32 7.32 0 007.9-9.16.56.56 0 00-.94-.26l-3.92 3.93-3.32-.67-.66-3.32L28 1.42a.56.56 0 00-.25-.94 7.32 7.32 0 00-9.17 7.9 1.72 1.72 0 01-.52 1.4l-1.36 1.36-9.98-9.99a3.94 3.94 0 10-5.58 5.58l9.99 9.98-1.36 1.36a1.7 1.7 0 01-1.39.52 7.32 7.32 0 00-7.91 9.17.56.56 0 00.94.25l3.92-3.92 3.32.66.67 3.32-3.92 3.92a.56.56 0 00.25.95 7.32 7.32 0 009.16-7.91 1.72 1.72 0 01.52-1.39l1.37-1.36 9.51 9.52a.56.56 0 00.26.14l6.37 1.6a.56.56 0 00.68-.69zm-4.18-1.35l-2.17-.55V28.9l1.31.26a.56.56 0 00.67-.66l-.26-1.32h2.05l.55 2.16a3.9 3.9 0 00-2.16 2.15zm-1.66-4.6l.2 1-1-.2L7.93 8.72l.8-.8zm-8.82-16.33a2.85 2.85 0 00.84-2.3 6.2 6.2 0 016.74-6.89l-3.37 3.38a.56.56 0 00-.16.51l.8 3.98a.56.56 0 00.44.44l3.98.8a.56.56 0 00.51-.15l3.38-3.38a6.2 6.2 0 01-6.87 6.75 2.85 2.85 0 00-2.31.84l-1.37 1.36-1.6-1.6.03-.02 2.26-2.25a.57.57 0 10-.8-.8l-2.26 2.25-.02.03-1.6-1.6zM10.3 6.33l19.72 19.73h-1.59L9.51 7.13zm-8.36-.4a2.81 2.81 0 113.98-3.98l1.2 1.2-3.99 3.98zm2 2l3.97-3.99 1.6 1.6L5.52 9.5zm10.6 14.91a2.85 2.85 0 00-.85 2.31 6.2 6.2 0 01-6.74 6.88l3.38-3.38a.56.56 0 00.15-.5l-.8-3.99a.56.56 0 00-.44-.44l-3.98-.8a.56.56 0 00-.5.16l-3.38 3.37a6.2 6.2 0 016.87-6.74 2.84 2.84 0 002.31-.84l1.37-1.37 1.6 1.6-.04.03-2.26 2.25a.57.57 0 10.8.8l2.26-2.25.02-.04 1.6 1.6zM6.33 10.31l.8-.8 18.93 18.93v1.6zm24.13 21.47a2.69 2.69 0 011.32-1.32l.44 1.75z"/>
</svg>