<svg xmlns="http://www.w3.org/2000/svg" viewBox="0 0 64 64">
  <defs/>
  <path fill="#ff0000" d="M23.6 53.1V27.7c0-1 .8-1.8 1.8-1.8s1.8.8 1.8 1.8v25.5c0 1-.8 1.8-1.8 1.8-1-.1-1.8-.9-1.8-1.9zm15 1.8c1 0 1.8-.8 1.8-1.8V27.7c0-1-.8-1.8-1.8-1.8s-1.8.8-1.8 1.8v25.5c0 .9.8 1.7 1.8 1.7zm12.9-37.5v44.8c0 1-.8 1.8-1.8 1.8H14.3c-1 0-1.8-.8-1.8-1.8V17.4c0-1 .8-1.8 1.8-1.8h35.4c1 0 1.8.8 1.8 1.8zm-3.6 1.8H16.1v41.2h31.8V19.2zm6.6-9.9c0 1-.8 1.8-1.8 1.8H11.3c-1 0-1.8-.8-1.8-1.8s.8-1.8 1.8-1.8h12.4V5.4C23.6 2.4 26 0 29 0h6c3 0 5.4 2.4 5.4 5.4v2.1h12.4c.9 0 1.7.9 1.7 1.8zM27.2 7.5h9.5V5.4c0-1-.8-1.8-1.8-1.8H29c-1 0-1.8.8-1.8 1.8v2.1z"/>
</svg>