<svg xmlns="http://www.w3.org/2000/svg" viewBox="-42 0 512 512">
  <defs/>
  <path fill="#fff" d="M210.35 246.63c33.88 0 63.22-12.15 87.2-36.13 23.97-23.97 36.12-53.3 36.12-87.19 0-33.87-12.15-63.2-36.13-87.19C273.57 12.15 244.23 0 210.35 0c-33.89 0-63.22 12.15-87.19 36.13s-36.13 53.3-36.13 87.18c0 33.89 12.16 63.23 36.13 87.2 23.98 23.97 53.32 36.12 87.2 36.12zM144.38 57.34C162.78 38.94 184.35 30 210.35 30s47.58 8.95 65.98 27.34c18.4 18.4 27.34 39.98 27.34 65.97 0 26-8.95 47.58-27.34 65.98-18.4 18.4-39.98 27.34-65.98 27.34-26 0-47.57-8.95-65.97-27.34-18.4-18.4-27.34-39.98-27.34-65.98 0-25.99 8.94-47.57 27.34-65.97zm0 0M426.13 393.7a304.6 304.6 0 00-4.15-32.35 254.9 254.9 0 00-7.96-32.53 160.68 160.68 0 00-13.37-30.33 114.36 114.36 0 00-20.16-26.28c-7.96-7.61-17.7-13.73-28.97-18.2-11.22-4.44-23.66-6.69-36.97-6.69-5.23 0-10.28 2.14-20.05 8.5-6 3.92-13.03 8.45-20.87 13.46-6.71 4.27-15.8 8.28-27.02 11.9a107.28 107.28 0 01-33.04 5.34c-10.97 0-22.09-1.8-33.05-5.34-11.2-3.62-20.3-7.62-27-11.9-7.76-4.96-14.8-9.5-20.9-13.46-9.75-6.36-14.8-8.5-20.03-8.5-13.3 0-25.75 2.25-36.97 6.7-11.26 4.45-21 10.57-28.97 18.2a114.38 114.38 0 00-20.15 26.27c-5.56 9.78-10.06 19.99-13.38 30.34a255.5 255.5 0 00-7.95 32.52 302.52 302.52 0 00-4.15 32.36A438.15 438.15 0 000 423.95c0 26.73 8.5 48.36 25.25 64.32C41.8 504.02 63.69 512 90.32 512h246.53c26.62 0 48.5-7.98 65.06-23.73 16.76-15.95 25.25-37.59 25.25-64.32 0-10.32-.35-20.5-1.03-30.25zm-44.9 72.83c-10.94 10.4-25.46 15.47-44.39 15.47H90.32c-18.94 0-33.45-5.06-44.38-15.46C35.2 456.33 30 442.39 30 423.94c0-9.58.32-19.06.95-28.15.62-8.92 1.88-18.72 3.75-29.14a225.34 225.34 0 017-28.67 131.05 131.05 0 0110.88-24.67 84.78 84.78 0 0114.82-19.42c5.14-4.93 11.63-8.96 19.27-11.98 7.06-2.8 15-4.33 23.63-4.56 1.05.56 2.92 1.63 5.95 3.6 6.17 4.02 13.28 8.6 21.14 13.63 8.86 5.65 20.27 10.75 33.9 15.15a137.3 137.3 0 0042.28 6.8c14.11 0 28.34-2.3 42.27-6.8 13.65-4.4 25.06-9.5 33.93-15.16 8.04-5.14 14.95-9.6 21.12-13.62a81.42 81.42 0 015.95-3.6c8.63.23 16.57 1.76 23.64 4.56 7.64 3.02 14.12 7.06 19.27 11.98a84.55 84.55 0 0114.81 19.42c4.55 8 8.21 16.3 10.89 24.66 2.8 8.75 5.16 18.4 7 28.68a275.16 275.16 0 013.75 29.14v.01c.64 9.06.96 18.53.96 28.15 0 18.45-5.21 32.38-15.94 42.58zm0 0"/>
</svg>