<svg xmlns="http://www.w3.org/2000/svg" width="21.067" height="18.961" viewBox="0 0 21.067 18.961">
  <path id="work" d="M20.014,3.16H15.449v-1.4A1.758,1.758,0,0,0,13.694,0H7.374A1.758,1.758,0,0,0,5.618,1.756v1.4H1.053A1.053,1.053,0,0,0,0,4.213v7.816a1.058,1.058,0,0,0,.7.991v4.887a1.053,1.053,0,0,0,1.053,1.053H19.312a1.053,1.053,0,0,0,1.053-1.053V13.021a1.058,1.058,0,0,0,.7-.992V4.213A1.053,1.053,0,0,0,20.014,3.16ZM6.32,1.756A1.053,1.053,0,0,1,7.374.7h6.32a1.053,1.053,0,0,1,1.053,1.053v1.4h-.7v-1.4a.351.351,0,0,0-.351-.351H7.374a.351.351,0,0,0-.351.351v1.4h-.7Zm7.022,1.4H7.725V2.107h5.618Zm6.32,14.747a.351.351,0,0,1-.351.351H1.756a.351.351,0,0,1-.351-.351V13.141l7.725,1.065V15.1a1.053,1.053,0,0,0,1.053,1.053h.7A1.053,1.053,0,0,0,11.938,15.1v-.892l7.725-1.065ZM11.236,15.1a.351.351,0,0,1-.351.351h-.7a.351.351,0,0,1-.351-.351V12.991a.351.351,0,0,1,.351-.351h.7a.351.351,0,0,1,.351.351Zm9.129-3.069a.351.351,0,0,1-.3.348l-.1.013L11.938,13.5v-.506a1.053,1.053,0,0,0-1.053-1.053h-.7a1.053,1.053,0,0,0-1.053,1.053V13.5L1,12.377a.351.351,0,0,1-.3-.348V4.213a.351.351,0,0,1,.351-.351H20.014a.351.351,0,0,1,.351.351Zm0,0" fill="#737373"/>
</svg>
