<svg xmlns="http://www.w3.org/2000/svg" viewBox="0 0 1526 439">
  <defs/>
  <g data-name="Calque 1">
    <path fill="#f7931e" d="M1304.38 10.75H217.17a206.67 206.67 0 00-69.48 12c-183 65.31-183 324.13 0 389.44a206.67 206.67 0 0069.48 12h1087.21a206.73 206.73 0 0069.49-12c183-65.31 183-324.13 0-389.44a206.73 206.73 0 00-69.49-12z"/>
    <path d="M374.98 176.75q-9.56 15.41-27.78 25.17t-43.4 11.5l-9.33 52.3q-5.43 30.15-29.51 30.16a41.73 41.73 0 01-24.41-7.81q-11.19-7.82-17.91-23.87t-6.72-39.5q0-44 14.21-74.75t38.19-46a96.27 96.27 0 0152.84-15.3q20.4 0 34.61 7.17t21.49 19.42a53.23 53.23 0 017.26 27.66 63.07 63.07 0 01-9.54 33.85zm-22.79-31.9q0-14.33-9.44-23.33t-29.18-9a58.31 58.31 0 00-39 14.11q-16.59 14.1-25.6 39.17t-9 57.18a94.53 94.53 0 002.72 23.87q2.7 10.41 6.94 16.16t8.14 5.75q5.41 0 8.24-15l7.16-41q-8.46-1.31-7.37-1.09-6.51-1.08-8.47-4a13.25 13.25 0 01-1.95-7.49 10.48 10.48 0 012.71-7.59 9.91 9.91 0 017.49-2.82 18.52 18.52 0 013.25.21c3.48.58 6.15 1 8 1.09q2.82-16.93 8-45.36 1.31-7.36 6-10.52a19.18 19.18 0 0111-3.15q7.15 0 10.31 2.72c2.09 1.81 3.14 4.66 3.14 8.57a29.71 29.71 0 01-.43 5.64l-7.16 42.1q44.5-5.64 44.5-46.22zM495.2 208.43a15 15 0 011.51 7.16q0 10.41-6.29 12.37a98.94 98.94 0 01-28.64 5.21q-4.12 18.22-16.28 29.18t-27.56 11q-13 0-22.24-6.29a40 40 0 01-14-16.71 53.4 53.4 0 01-4.78-22.57q0-16.48 6.29-29.4a49.54 49.54 0 0117.36-20.18 43.69 43.69 0 0124.52-7.27q16.5 0 26.59 11.39t11.82 28.1a131.27 131.27 0 0024.31-4.34 12.64 12.64 0 013-.43 4.75 4.75 0 014.39 2.78zm-63.48 36.24q5.1-5.64 6.84-16.28a29.94 29.94 0 01-10.31-11.93 35.31 35.31 0 01-3.58-15.63 38 38 0 01.65-6.94h-1.08q-8.68 0-14.43 8.35t-5.75 23.55q0 11.94 4.66 18.23t11 6.29a15.73 15.73 0 0012-5.64z"/>
    <path d="M573.86 204.2a11.35 11.35 0 013.36 8.35 16.41 16.41 0 01-1.3 6.08 36.69 36.69 0 01-9.77 13.45 20.76 20.76 0 01-13.89 5.43 13.85 13.85 0 01-10.3-4.34q-4.23-4.35-4.23-11.72 0-4.12.43-8.9a45.45 45.45 0 00.43-4.77 3.86 3.86 0 00-.76-2.61 2.38 2.38 0 00-1.84-.86c-2 0-4.77 2.42-8.25 7.26a106.73 106.73 0 00-10.41 19.21 156.32 156.32 0 00-8.47 25.17q-2.38 10.43-5.42 13.89t-10 3.47q-8.25 0-11.61-8.68t-3.37-27.78a176.75 176.75 0 018-53.59q2-6.3 6.41-9.23t12.47-2.93c2.9 0 4.92.37 6.08 1.09s1.73 2.1 1.73 4.12q0 3.48-3.25 15.63-2.18 8.67-3.47 15.19a152.79 152.79 0 00-2.17 16.05q7.15-18.66 16.06-30.38t17.36-16.7q8.46-5 15.4-5 6.3 0 9.66 3.58t3.36 10.53q0 4.13-2.38 15.62h1.95a11.12 11.12 0 018.19 3.37zM686.69 226.44a13.41 13.41 0 011.63 7.16q0 8.68-4.12 13.45a92 92 0 01-20.4 18.88 44.7 44.7 0 01-25.39 7.38q-44.27 0-44.27-62.28 0-9.54.66-19.31h-8.47c-4.34 0-7.27-.79-8.79-2.39s-2.27-4.12-2.27-7.59q0-12.15 9.76-12.16h12.37a211.34 211.34 0 0111.28-43.61q7.6-19.74 18.34-31.47t23.11-11.71q9.12 0 14.32 8t5.21 20.19q0 33.63-28.21 58.58h24.3c2.32 0 4 .51 5 1.52s1.51 2.9 1.51 5.65q0 15-24.52 15h-26.47q-.44 10.84-.43 16.93 0 22.56 5.31 31.68t16.82 9.11a25.9 25.9 0 0016.49-5.64q7.15-5.64 16.93-16.93a7.62 7.62 0 015.86-3 5 5 0 014.44 2.56zM637 111.75q-4 8.15-7.59 22.57a301.81 301.81 0 00-6 32 74.07 74.07 0 0019.2-24.85q6.4-13.77 6.41-25.06 0-12.8-4.78-12.8-3.22.01-7.24 8.14z"/>
    <path d="M763.4 220.58q0 17.15-26.91 17.14a82.8 82.8 0 01-15-1.95q2.82 13.45 4.67 29.84a252.52 252.52 0 011.84 27q0 23.45-7.59 35.81t-20 12.37q-15.61 0-22.24-22.14t-6.62-66.83a409.75 409.75 0 019-84.52q9-42.86 24.73-71t34.62-28.1q10.2 0 15.95 9.11t5.75 24.52q0 51-61 111.1a372.35 372.35 0 00-2.17 37.33q0 22.35 1.52 45.89t5 23.55q6.51 0 6.51-22.57a229.89 229.89 0 00-2.28-32.77q-2.28-15.84-6.18-33.41-.22-2.82 1.84-7.16a29.41 29.41 0 015.1-7.6q3-3.26 5.43-3.26 4.34 0 10.41.44a43 43 0 004.56.22 138.1 138.1 0 0019.31-1.52c1.16-.15 2.39-.29 3.69-.44a36.44 36.44 0 013.91-.21q6.16.08 6.15 9.16zm-37.65-117.61q-5.74 13.23-11.39 35t-9.76 46.11a158.73 158.73 0 0026.69-41.12q9.33-21.36 9.54-40 0-13.24-5.42-13.24-3.91.01-9.66 13.25z"/>
    <path d="M861.92 208.43a15 15 0 011.52 7.16q0 10.41-6.29 12.37a99 99 0 01-28.65 5.21q-4.12 18.22-16.27 29.18t-27.56 11q-13 0-22.24-6.29a39.93 39.93 0 01-14-16.71 53.4 53.4 0 01-4.78-22.57q0-16.48 6.3-29.4a49.39 49.39 0 0117.36-20.18 43.69 43.69 0 0124.52-7.27q16.48 0 26.58 11.39t11.83 28.1a131 131 0 0024.3-4.34 12.71 12.71 0 013-.43 4.73 4.73 0 014.38 2.78zm-63.42 36.24q5.09-5.64 6.83-16.28a29.91 29.91 0 01-10.3-11.93 35.31 35.31 0 01-3.58-15.63 37.13 37.13 0 01.65-6.94h-1.09q-8.69 0-14.43 8.35t-5.75 23.55q0 11.94 4.66 18.23t11 6.29a15.75 15.75 0 0012.01-5.64z"/>
    <path d="M960.33 226.98a13.17 13.17 0 011.62 6.84 16.67 16.67 0 01-1.51 7.81 14.2 14.2 0 01-4.78 5q-18.66 12.59-27.34 18.66l-13.89 9.33q-8.25 44.93-21.59 70.64t-34 25.71q-11.07 0-18-6.83t-6.94-17.91q0-15.41 12.15-33.09t45.57-43.51l1.3-8.46a26.24 26.24 0 01-21.48 12.15q-13.47 0-21.49-9.76t-8-25.61a70.63 70.63 0 018-32.88 68.48 68.48 0 0121.38-25q13.34-9.44 28.32-9.44c3.18 0 5.31.62 6.4 1.84s2 3.44 2.71 6.62a47.39 47.39 0 019.55-.86q5.41 0 7.7 1.62t2.28 6.4a29.75 29.75 0 01-.22 4.13q-.87 6.72-5.42 34.07-.87 5.2-1.85 11.39t-2.06 13.13q16.71-13 32.12-23a9.82 9.82 0 015-1.74 5 5 0 014.47 2.75zM873.5 336.89q6.82-13 13.13-41.45-16.72 14.32-24.09 25.83t-7.38 20.18a11.78 11.78 0 001.41 6.07 5 5 0 004.67 2.39q5.45 0 12.26-13.02zm15.3-91.57q4.55-6.07 6.51-17.36l6.94-37.11q-8.89.22-16.49 6.84a46.41 46.41 0 00-12.15 17.47 58.74 58.74 0 00-4.56 23q0 6.72 2.71 10a9.21 9.21 0 007.49 3.25q5.01-.02 9.58-6.09z"/>
    <path d="M950.13 264.63q-3.37-8.67-3.36-27.78a176.74 176.74 0 018-53.59q2-6.3 6.41-9.23t12.47-2.93c2.9 0 4.92.37 6.08 1.09s1.74 2.1 1.74 4.12q0 3.48-3.26 15.63-2.17 8.67-3.47 15.19a152.79 152.79 0 00-2.17 16.05q7.15-18.66 16.06-30.38t17.46-16.7q8.58-5 15.74-5 14.1 0 14.1 14.11 0 2.82-1.95 13.67a80 80 0 00-1.74 10.85q0 7.61 5.43 7.6 6.07 0 15.62-9.55a8.3 8.3 0 015.86-2.82 5.07 5.07 0 014.45 2.49 12 12 0 011.63 6.62q0 8-4.34 12.59a59 59 0 01-14.22 10.74 35.47 35.47 0 01-17.25 4.45q-11.5 0-17.47-5.86t-6-15.84a32.67 32.67 0 01.65-6.51q.43-4.35.43-5.86c0-2.32-.8-3.47-2.39-3.47q-3.26 0-8.57 7.26a102.24 102.24 0 00-10.52 19.21 156.3 156.3 0 00-8.46 25.17q-2.4 10.2-5.54 13.78t-9.87 3.58q-8.18 0-11.55-8.68z"/>
    <path d="M1050.27 263.55q-8-9.77-8-25.61a70.63 70.63 0 018-32.88 68.48 68.48 0 0121.38-25q13.34-9.44 28.31-9.44c3.18 0 5.32.62 6.41 1.84s2 3.44 2.71 6.62a51.71 51.71 0 019.55-.86q10.62 0 10.63 7.59 0 4.56-3.26 21.7-5 25-5 34.72a7.9 7.9 0 001.63 5.21 5.26 5.26 0 004.23 1.95q4.13 0 10-5.32a183.37 183.37 0 0015.84-17.25 7.63 7.63 0 015.86-3 5 5 0 014.45 2.6 13.41 13.41 0 011.63 7.16q0 8.68-4.12 13.45a110 110 0 01-18.88 18.67q-10 7.59-19.32 7.59a20.26 20.26 0 01-13.12-4.88 29.78 29.78 0 01-9-13.35q-11.28 18.22-28.43 18.23-13.47.02-21.5-9.74zm38.41-17.8q4.33-5.64 6.29-15l8-39.93a26.36 26.36 0 00-16.82 6.84 46.07 46.07 0 00-12.26 17.47 58.92 58.92 0 00-4.55 23q0 6.72 2.71 10a9.21 9.21 0 007.49 3.25c3.21.01 6.24-1.88 9.14-5.63z"/>
    <path d="M1150.85 264.63q-3.37-8.67-3.37-27.78a176.75 176.75 0 018-53.59q2-6.3 6.4-9.23t12.48-2.93c2.89 0 4.92.37 6.08 1.09s1.73 2.1 1.73 4.12q0 3.48-3.25 15.63-2.18 8.67-3.47 15.08a147.59 147.59 0 00-2.17 15.95 117.47 117.47 0 0114-28.65q8.14-11.71 16.71-17.47t16.17-5.75q7.59 0 10.74 3.48t3.15 10.63q0 6.95-4.13 25.17-1.74 7.81-2.38 11.72 7.15-18.23 15.95-29.73t17.25-16.38q8.46-4.89 15.62-4.89 6.95 0 10.53 3.58t3.58 10.53q0 5.64-2.39 21.27-2.18 13.23-3.47 25.06a242 242 0 00-1.3 26.36q0 8.25-3.37 11.83t-11 3.58q-7.16 0-10.41-3.69t-3.26-11.06q0-8.69 3-28.65 2.61-17.35 2.61-22.13c0-2.32-.8-3.47-2.39-3.47q-2.82 0-8 7.26a107.33 107.33 0 00-10.42 19.21 156.3 156.3 0 00-8.46 25.17q-2.39 10.43-5.53 13.89t-10.09 3.47q-7.17 0-10.75-6.83t-3.58-16.61a189 189 0 012.17-23.86q1.74-13.89 1.74-18.23c0-2.32-.8-3.47-2.39-3.47q-3.26 0-8.24 7.81a112 112 0 00-9.66 20 192.63 192.63 0 00-7.49 23.87q-2.38 10.2-5.53 13.78t-9.87 3.58q-8.18-.04-11.54-8.72z"/>
  </g>
</svg>